<svg xmlns="http://www.w3.org/2000/svg" viewBox="0 0 37.332 37.332"><defs><style>.a{fill:none;stroke:#d5354e;stroke-linecap:round;stroke-miterlimit:10;stroke-width:2px;}</style></defs><g transform="translate(0 0.001)"><path class="a" d="M23.14,9.6l6.372-6.373a7.648,7.648,0,0,1,10.784,0h0a7.648,7.648,0,0,1,0,10.784l-8.334,8.334a7.648,7.648,0,0,1-10.784,0h0" transform="translate(-6.19)"/><path class="a" d="M19.4,34.138,14.009,39.53a7.648,7.648,0,0,1-10.784,0h0a7.648,7.648,0,0,1,0-10.784L11.068,20.9a7.648,7.648,0,0,1,10.784,0h0" transform="translate(0 -5.423)"/><line class="a" y2="4.16" transform="translate(23.854 31.503)"/><line class="a" x2="2.942" y2="2.942" transform="translate(26.458 30.117)"/><line class="a" x2="4.16" transform="translate(27.32 27.344)"/><line class="a" y1="4.16" transform="translate(11.375 3.08)"/><line class="a" x1="2.941" y1="2.942" transform="translate(5.829 5.684)"/><line class="a" x1="4.16" transform="translate(3.749 11.399)"/></g></svg>